<svg xmlns="http://www.w3.org/2000/svg" viewBox="0 0 60 60" fill="none">
  <rect width="60" height="60" rx="12" fill="#0366D6"/>
  <path d="M30 12C20.059 12 12 20.059 12 30C12 39.941 20.059 48 30 48C39.941 48 48 39.941 48 30C48 20.059 39.941 12 30 12ZM30 43C22.82 43 17 37.18 17 30C17 22.82 22.82 17 30 17C37.18 17 43 22.82 43 30C43 37.18 37.18 43 30 43Z" fill="white"/>
  <rect x="22" y="24" width="16" height="3" rx="1.5" fill="white"/>
  <rect x="22" y="30" width="12" height="3" rx="1.5" fill="white"/>
  <rect x="22" y="36" width="8" height="3" rx="1.5" fill="white"/>
</svg>
